<svg width="44" height="44" viewBox="0 0 44 44" fill="none" xmlns="http://www.w3.org/2000/svg">
<path d="M21.712 14.423C17.7242 14.423 14.4698 17.6656 14.4698 21.6391C14.4698 25.6125 17.7242 28.8552 21.712 28.8552C25.6999 28.8552 28.9543 25.6125 28.9543 21.6391C28.9543 17.6656 25.6999 14.423 21.712 14.423ZM43.4333 21.6391C43.4333 18.6509 43.4605 15.6897 43.2921 12.7069C43.1236 9.24234 42.3304 6.16751 39.7877 3.63402C37.2397 1.09512 34.1591 0.310176 30.682 0.142359C27.6829 -0.025457 24.7111 0.00161019 21.7175 0.00161019C18.7184 0.00161019 15.7466 -0.025457 12.753 0.142359C9.27581 0.310176 6.18985 1.10054 3.64718 3.63402C1.09909 6.17292 0.311299 9.24234 0.142875 12.7069C-0.0255492 15.6951 0.00161602 18.6563 0.00161602 21.6391C0.00161602 24.6219 -0.0255492 27.5884 0.142875 30.5713C0.311299 34.0358 1.10452 37.1107 3.64718 39.6442C6.19528 42.1831 9.27581 42.968 12.753 43.1358C15.752 43.3036 18.7239 43.2766 21.7175 43.2766C24.7165 43.2766 27.6884 43.3036 30.682 43.1358C34.1591 42.968 37.2451 42.1776 39.7877 39.6442C42.3358 37.1053 43.1236 34.0358 43.2921 30.5713C43.4659 27.5884 43.4333 24.6273 43.4333 21.6391ZM21.712 32.742C15.5455 32.742 10.5689 27.7833 10.5689 21.6391C10.5689 15.4948 15.5455 10.5361 21.712 10.5361C27.8785 10.5361 32.8552 15.4948 32.8552 21.6391C32.8552 27.7833 27.8785 32.742 21.712 32.742ZM33.3116 12.6744C31.8718 12.6744 30.7091 11.516 30.7091 10.0814C30.7091 8.64686 31.8718 7.48838 33.3116 7.48838C34.7513 7.48838 35.914 8.64686 35.914 10.0814C35.9144 10.4221 35.8474 10.7594 35.7168 11.0742C35.5861 11.389 35.3945 11.6751 35.1527 11.9159C34.911 12.1568 34.6239 12.3478 34.308 12.4779C33.992 12.6081 33.6534 12.6749 33.3116 12.6744Z" fill="#333333"/>
</svg>
