<svg width="44" height="44" viewBox="0 0 44 44" fill="none" xmlns="http://www.w3.org/2000/svg">
<path d="M22.1533 0C17.858 0 13.6591 1.26911 10.0877 3.64684C6.51627 6.02458 3.73269 9.40414 2.08894 13.3582C0.445201 17.3122 0.0151228 21.6631 0.853096 25.8607C1.69107 30.0582 3.75946 33.9139 6.7967 36.9402C9.83394 39.9665 13.7036 42.0274 17.9164 42.8624C22.1292 43.6973 26.4958 43.2688 30.4642 41.631C34.4325 39.9932 37.8243 37.2196 40.2107 33.6611C42.597 30.1026 43.8707 25.9189 43.8707 21.6391C43.8707 18.7974 43.309 15.9835 42.2176 13.3582C41.1262 10.7328 39.5265 8.34731 37.5098 6.33794C35.4932 4.32857 33.0991 2.73464 30.4642 1.64718C27.8293 0.559712 25.0052 0 22.1533 0ZM29.0594 32.7875C28.9784 32.9897 28.8548 33.1722 28.6971 33.3229C28.5394 33.4735 28.3512 33.5888 28.145 33.661C27.9389 33.7331 27.7197 33.7605 27.502 33.7412C27.2844 33.7219 27.0735 33.6565 26.8833 33.5492L20.987 28.9834L17.2038 32.463C17.116 32.5276 17.0133 32.5691 16.9052 32.5839C16.797 32.5986 16.6869 32.5861 16.5849 32.5473L17.3103 26.0794L17.332 26.0989L17.3472 25.9712C17.3472 25.9712 27.9562 16.3462 28.3883 15.9372C28.827 15.5282 28.6815 15.4395 28.6815 15.4395C28.7076 14.9418 27.8975 15.4395 27.8975 15.4395L13.8398 24.45L7.98696 22.4635C7.98696 22.4635 7.08786 22.1433 7.00316 21.4357C6.91412 20.7346 8.01519 20.3537 8.01519 20.3537L31.2898 11.1398C31.2898 11.1398 33.2031 10.2915 33.2031 11.6981L29.0594 32.7875Z" fill="#333333"/>
</svg>
