<svg width="43" height="44" viewBox="0 0 43 44" fill="none" xmlns="http://www.w3.org/2000/svg">
<path fill-rule="evenodd" clip-rule="evenodd" d="M5.22067 4.44857C9.41396 0.620241 16.9101 0.0504095 20.394 0.00352468C21.5559 -0.0127047 22.2726 0.0323769 22.2726 0.0323769C31.9911 0.0684422 36.3347 3.22415 37.4205 4.21595L37.4386 4.21955C41.022 7.32117 43.0128 14.1736 41.6735 25.049C40.4857 34.6504 33.7622 36.3401 31.5131 36.9054C31.2949 36.9602 31.1188 37.0045 30.9939 37.0444C30.3786 37.2427 25.0397 38.5753 18.072 37.9983L15.5383 40.8474C15.3039 41.0966 15.0857 41.343 14.8777 41.5778C13.8813 42.7028 13.1196 43.5628 11.9368 43.1899C10.7785 42.8292 10.8473 41.0801 10.8473 41.0801V36.7162C0.658175 33.8472 0.78486 23.3161 0.893448 17.708C1.02013 12.0782 2.10782 7.53215 5.22067 4.44857ZM21.1407 7.21305C21.0696 7.21305 20.999 7.22714 20.9331 7.25356C20.9 7.26764 20.8684 7.28437 20.8388 7.30463C20.8094 7.324 20.782 7.34601 20.7569 7.37066C20.7065 7.42085 20.6665 7.47984 20.6392 7.54588C20.6283 7.57142 20.6196 7.59871 20.613 7.62601C20.6029 7.66739 20.5978 7.70965 20.5978 7.7528C20.5978 7.81443 20.6083 7.87431 20.6282 7.93154C20.6549 8.00726 20.6986 8.07682 20.7568 8.13494C20.8587 8.23619 20.9968 8.29343 21.1407 8.29343C22.4862 8.26789 23.8235 8.50827 25.0753 9.00047C26.3271 9.49267 27.4687 10.2261 28.4342 11.1603C30.4069 13.0719 31.3679 15.6324 31.4041 18.9871C31.4041 19.0575 31.4182 19.128 31.4454 19.194C31.4727 19.2592 31.5127 19.319 31.5631 19.3692C31.6135 19.4194 31.6734 19.459 31.7393 19.4863C31.8051 19.5136 31.8757 19.5277 31.947 19.5277V19.5119C32.091 19.5119 32.2291 19.4546 32.3309 19.3534C32.4328 19.2512 32.49 19.1139 32.49 18.9704C32.5571 17.3934 32.3013 15.8191 31.7381 14.3433C31.175 12.8676 30.3162 11.5213 29.2143 10.3873C27.0606 8.29519 24.3441 7.21305 21.1407 7.21305ZM13.9848 8.4572C13.6 8.40261 13.2078 8.47921 12.8718 8.6738H12.8501C12.1081 9.10701 11.424 9.64763 10.7725 10.3688C10.2838 10.9464 10.0105 11.5213 9.93814 12.0805C9.89556 12.408 9.92646 12.7417 10.0286 13.056L10.0648 13.0737C10.6226 14.7079 11.3505 16.2796 12.2366 17.7623C13.3851 19.8394 14.7962 21.7615 16.4353 23.4803L16.4896 23.5525L16.562 23.6071L16.6163 23.6608L16.6706 23.7154C18.4029 25.3522 20.3368 26.7637 22.4257 27.9162C24.8147 29.215 26.2661 29.8278 27.1348 30.0805V30.0981C27.3882 30.1703 27.6198 30.2064 27.8551 30.2064C28.5966 30.1527 29.2987 29.8533 29.8495 29.3559C30.5553 28.7245 31.1163 28.0245 31.5326 27.2858V27.2673C31.9488 26.4916 31.8041 25.7511 31.2068 25.2457C30.0032 24.197 28.7001 23.2663 27.3158 22.4686C26.3928 21.9641 25.4517 22.2705 25.0716 22.775L24.2572 23.8017C23.841 24.3062 23.0809 24.234 23.0809 24.234L23.0591 24.2525C17.4126 22.8093 15.9104 17.1134 15.9104 17.1134C15.9104 17.1134 15.8381 16.3377 16.3629 15.9414L17.3764 15.1296C17.865 14.7325 18.2089 13.7948 17.6841 12.8755C16.8844 11.4958 15.9509 10.1971 14.897 8.99871C14.6677 8.71519 14.3441 8.52324 13.9848 8.4572ZM21.6967 10.2226C21.7981 10.1205 21.936 10.0632 22.08 10.0624L22.115 10.0615L22.156 10.0624C24.5088 10.2244 26.3548 11.0362 27.6759 12.4784C28.9971 13.9216 29.6667 15.7248 29.6124 17.8706C29.6125 17.9067 29.6091 17.9419 29.6021 17.9772C29.5953 18.0115 29.5851 18.0458 29.5716 18.0784C29.5566 18.1145 29.5377 18.1489 29.5154 18.1806C29.4972 18.207 29.4766 18.2316 29.454 18.2545C29.424 18.2845 29.3906 18.3109 29.3546 18.332C29.3301 18.347 29.3044 18.3602 29.2777 18.3716C29.2117 18.3989 29.1409 18.413 29.0695 18.413L29.0514 18.3919C28.9767 18.3919 28.9037 18.376 28.8365 18.347C28.7743 18.3206 28.717 18.2827 28.6681 18.2343C28.5663 18.133 28.5089 17.9957 28.5084 17.8521C28.5615 17.0104 28.4447 16.1669 28.1649 15.3709C27.8851 14.5749 27.4481 13.8432 26.8796 13.2181C25.6196 11.9211 23.8948 11.1753 22.0837 11.1445C21.9397 11.1445 21.8014 11.0881 21.6992 10.9869C21.5971 10.8865 21.5394 10.7483 21.5389 10.6056C21.5384 10.4621 21.5952 10.3239 21.6967 10.2226ZM22.9668 12.9821C22.8942 12.9794 22.8219 12.9918 22.754 13.0173C22.7218 13.0296 22.6909 13.0455 22.6617 13.0631C22.6292 13.0833 22.5989 13.1062 22.5711 13.1318C22.5182 13.1811 22.4757 13.241 22.446 13.307C22.4336 13.3343 22.4234 13.3633 22.4157 13.3924C22.405 13.4329 22.3989 13.4743 22.3977 13.5166C22.3955 13.5888 22.4077 13.661 22.4335 13.7288C22.4593 13.7965 22.4983 13.8582 22.5481 13.911C22.5979 13.9638 22.6577 14.0061 22.7239 14.0352L22.7857 14.0589C22.8337 14.0739 22.8837 14.0827 22.9343 14.0836C24.726 14.1743 25.5947 15.0759 25.7033 16.9329C25.7055 17.0016 25.721 17.0685 25.7481 17.1301C25.7763 17.1944 25.8169 17.2534 25.8685 17.3036C25.9699 17.4013 26.1053 17.4559 26.2462 17.4559H26.2643C26.3372 17.4533 26.4089 17.4365 26.4751 17.4066C26.5414 17.3758 26.6007 17.3326 26.6497 17.278C26.6987 17.2243 26.7363 17.1609 26.7603 17.0931C26.7842 17.0245 26.794 16.9514 26.7891 16.8792C26.6624 14.4622 25.3413 13.108 22.9886 12.9821H22.9668Z" fill="#333333"/>
</svg>
